<svg width="152" height="100" viewBox="0 0 152 100" fill="none" xmlns="http://www.w3.org/2000/svg">
<g id="&#236;&#149;&#132;&#236;&#157;&#180;&#236;&#189;&#152;">
<path id="Vector" d="M16.5724 15.4488C14.1868 17.8106 14.1868 21.6481 16.5724 24.0099L71.6935 36.2035C73.5006 36.7595 74.7884 37.073 76.017 37.1733V1.56641L16.5724 15.4488Z" fill="white"/>
<path id="Vector_2" d="M15.4539 14.3417C14.0014 15.7797 13.1992 17.6942 13.1992 19.7299C13.1992 21.7657 14.0014 23.6802 15.4539 25.1182C15.665 25.3272 15.9352 25.4735 16.2266 25.5404L71.3477 37.734C72.9606 38.2315 74.4172 38.6119 75.8823 38.7331C76.3257 38.7707 76.7606 38.6244 77.0857 38.3276C77.4108 38.0308 77.5966 37.6128 77.5966 37.1739V1.567C77.5966 1.09045 77.377 0.634813 76.997 0.33802C76.617 0.041226 76.1188 -0.067459 75.6501 0.041226L16.2097 13.9236C15.9226 13.9905 15.6608 14.1368 15.4539 14.3417ZM74.4341 1.567V37.1739C74.4341 36.735 74.6199 36.3169 74.945 36.0201C75.2701 35.7234 75.7092 35.577 76.1483 35.6147C75.1223 35.5269 74.0034 35.2761 72.1583 34.7076C72.0359 34.6741 16.9148 22.4805 16.9148 22.4805C17.2103 22.5432 17.4763 22.6937 17.6874 22.9027C16.8303 22.0541 16.3617 20.9297 16.3617 19.7299C16.3617 18.5302 16.8346 17.4057 17.6874 16.5572C17.4806 16.762 17.2188 16.9083 16.9317 16.9752L76.3806 3.09277C75.9119 3.20145 75.4137 3.09277 75.0337 2.79597C74.6537 2.49918 74.4341 2.04772 74.4341 1.567Z" fill="#C5C5C5"/>
<path id="Vector_3" d="M135.26 15.4101L76.0176 1.58203V35.8471C77.2462 35.7509 78.534 35.4416 80.3369 34.8982L135.403 22.947C137.789 20.6312 137.645 17.7259 135.26 15.4101Z" fill="white"/>
<path id="Vector_4" d="M135.622 13.8849L76.38 0.056851C75.9071 -0.051834 75.4132 0.0568511 75.0332 0.353645C74.6532 0.650439 74.4336 1.1019 74.4336 1.58262V35.8477C74.4336 36.2866 74.6194 36.7046 74.9445 37.0014C75.2696 37.2982 75.7045 37.4487 76.1436 37.4111C77.6003 37.2982 79.0569 36.922 80.7965 36.3995C80.674 36.4287 135.74 24.4817 135.74 24.4817C136.032 24.419 136.298 24.2769 136.509 24.0679C137.944 22.6717 138.704 21.0247 138.704 19.2941C138.704 17.505 137.894 15.7744 136.369 14.2946C136.162 14.0939 135.905 13.9518 135.626 13.8891L135.622 13.8849ZM135.06 21.4135L79.9985 33.3646C78.0225 33.954 76.9078 34.2007 75.8903 34.2843C76.3294 34.2508 76.7643 34.3971 77.0894 34.6939C77.4145 34.9907 77.6003 35.4087 77.6003 35.8435V1.58262C77.6003 2.06334 77.3807 2.5148 77.0007 2.8116C76.6207 3.10839 76.1267 3.21708 75.6538 3.10839L134.896 16.9365C134.613 16.8696 134.355 16.7316 134.153 16.531C135.06 17.413 135.538 18.3661 135.542 19.2941C135.542 20.1719 135.124 21.0247 134.296 21.8273C134.507 21.6183 134.773 21.4762 135.065 21.4135H135.06Z" fill="#C5C5C5"/>
<path id="Vector_5" d="M20.981 17.71C17.6032 17.71 14.8672 20.4187 14.8672 23.7629V78.2517C16.6532 81.8467 17.3499 82.5406 20.981 84.3046L76.0176 98.4295V31.8348L20.981 17.71Z" fill="white"/>
<path id="Vector_6" d="M20.9803 16.1436C16.737 16.1436 13.2832 19.563 13.2832 23.764V78.2529C13.2832 78.4911 13.3381 78.7252 13.4436 78.9426C15.3816 82.8469 16.3401 83.7958 20.2836 85.7103C20.3808 85.7563 20.4779 85.7939 20.5834 85.819L75.6201 99.9439C76.093 100.065 76.5996 99.9648 76.9881 99.668C77.3765 99.3712 77.6003 98.9114 77.6003 98.4265V31.836C77.6003 31.1212 77.1147 30.4983 76.4139 30.3228L21.3772 16.1937C21.2463 16.1603 21.1154 16.1436 20.9803 16.1436ZM74.4336 31.836V98.4348C74.4336 97.9499 74.6616 97.4901 75.0459 97.1933C75.4343 96.8965 75.9367 96.792 76.4139 96.9174L21.3772 82.7926C21.4828 82.8176 21.5799 82.8553 21.677 82.9013C18.3668 81.2919 17.9108 80.8446 16.2852 77.5631C16.3908 77.7763 16.4456 78.0146 16.4456 78.2571V23.7682C16.4456 21.2936 18.4808 19.2829 20.9761 19.2829C20.841 19.2829 20.7101 19.2662 20.5792 19.2327L75.6159 33.3576C74.915 33.1778 74.4294 32.555 74.4294 31.8402L74.4336 31.836Z" fill="#C5C5C5"/>
<path id="Vector_7" d="M131.048 17.71L76.0156 31.8348V98.4337L131.048 84.3088C134.679 82.5448 135.38 81.8508 137.166 78.2559V23.7671C137.166 20.4229 134.426 17.7141 131.048 17.7141V17.71Z" fill="white"/>
<path id="Vector_8" d="M130.653 16.1934L75.6161 30.3183C74.9152 30.4939 74.4297 31.1209 74.4297 31.8315V98.4304C74.4297 98.9153 74.6577 99.3751 75.0419 99.6719C75.4304 99.9687 75.9328 100.073 76.4099 99.9478L131.447 85.8229C131.552 85.7978 131.649 85.7602 131.746 85.7142C135.694 83.7955 136.653 82.8466 138.586 78.9465C138.692 78.7291 138.747 78.495 138.747 78.2568V23.768C138.747 19.5627 135.293 16.1475 131.045 16.1475C130.91 16.1475 130.779 16.1642 130.649 16.1976L130.653 16.1934ZM135.584 23.7638V78.2526C135.584 78.0101 135.639 77.7761 135.745 77.5587C134.119 80.836 133.667 81.2832 130.353 82.8968C130.45 82.8508 130.551 82.8132 130.653 82.7881L75.6161 96.913C76.089 96.7917 76.5957 96.8921 76.9841 97.1889C77.3726 97.4857 77.5964 97.9455 77.5964 98.4304V31.8357C77.5964 32.5505 77.1108 33.1734 76.4099 33.3531L131.447 19.2283C131.316 19.2617 131.185 19.2784 131.05 19.2784C133.549 19.2784 135.584 21.2933 135.584 23.7638Z" fill="#C5C5C5"/>
<path id="Vector_9" d="M16.2984 16.1673C15.1711 16.1673 1.58398 35.7766 1.58398 35.7766C1.58398 36.8927 59.6775 55.3566 59.6775 55.3566C60.6106 55.3566 75.9838 31.9308 75.9838 31.9308C75.9838 30.8147 16.2984 16.1631 16.2984 16.1631V16.1673Z" fill="white"/>
<path id="Vector_10" d="M16.2978 14.6006C15.3351 14.6006 14.3387 14.6006 0.278667 34.8912C0.0971111 35.1546 0 35.4639 0 35.7774C0 37.2949 0 37.6084 30.134 47.4778L59.1955 56.854C59.3518 56.9041 59.5122 56.9292 59.6811 56.9292C60.7198 56.9292 61.4755 56.9292 77.3173 32.7886C77.4862 32.5336 77.5707 32.2368 77.5707 31.9358C77.5707 30.3181 77.5707 30.0255 46.5373 22.1166L16.682 14.6466C16.5553 14.6131 16.4329 14.6006 16.302 14.6006H16.2978ZM74.6573 31.0789C67.8596 41.4416 59.9893 53.0249 58.8071 54.0783C58.9169 53.978 59.2462 53.7899 59.6811 53.7899C59.8458 53.7899 60.0104 53.815 60.1667 53.8651C39.1062 47.1768 4.85978 36.0324 2.584 34.6028C2.74444 34.7031 3.16667 35.1128 3.16667 35.7774C3.16667 36.0951 3.06956 36.4045 2.888 36.6636C8.91311 27.973 15.8544 18.4338 17.0451 17.5184C17.0451 17.5184 16.7622 17.7315 16.2978 17.7315C16.1711 17.7315 16.0402 17.7148 15.9178 17.6856C37.5187 22.9861 72.6771 31.8815 75.0584 33.1648C74.8051 33.0269 74.3998 32.5712 74.3998 31.9275C74.3998 31.6265 74.4884 31.3255 74.6531 31.0747L74.6573 31.0789Z" fill="#C5C5C5"/>
<path id="Vector_11" d="M135.703 16.1245C135.703 16.1245 76.0176 30.7761 76.0176 31.8922C76.0176 31.8922 91.3907 55.318 92.3238 55.318C92.3238 55.318 150.417 36.8541 150.417 35.738C150.417 35.738 136.83 16.1245 135.703 16.1245Z" fill="white"/>
<path id="Vector_12" d="M135.322 14.6044L105.467 22.0702C74.4336 29.9791 74.4336 30.2675 74.4336 31.8895C74.4336 32.1946 74.5223 32.4914 74.6869 32.7422C90.5245 56.8828 91.2803 56.8828 92.3189 56.8828C92.4878 56.8828 92.644 56.8578 92.8045 56.8076L121.866 47.4314C152 37.5662 152 37.2526 152 35.7352C152 35.4175 151.903 35.1124 151.721 34.849C137.661 14.5542 136.665 14.5542 135.702 14.5542C135.571 14.5542 135.449 14.5709 135.322 14.6002V14.6044ZM148.833 35.7394C148.833 35.0706 149.251 34.6651 149.416 34.5606C147.14 35.9861 112.894 47.1346 91.8376 53.8271C91.9938 53.777 92.1585 53.7519 92.3232 53.7519C92.758 53.7519 93.0874 53.94 93.1971 54.0403C92.0107 52.9827 84.1447 41.4036 77.3469 31.0409C77.5158 31.2959 77.6003 31.5927 77.6003 31.8936C77.6003 32.5332 77.1949 32.993 76.9416 33.131C79.3229 31.8435 114.481 22.9522 136.082 17.6517C135.96 17.681 135.829 17.6977 135.702 17.6977C135.242 17.6977 134.959 17.4845 134.959 17.4845C136.15 18.4 143.091 27.935 149.112 36.6298C148.93 36.3664 148.833 36.0613 148.833 35.7436V35.7394Z" fill="#C5C5C5"/>
</g>
</svg>
