<svg xmlns="http://www.w3.org/2000/svg" width="112" height="152" viewBox="0 0 112 152" fill="none">
  <path d="M13.7415 68.2473H14.3988C14.2674 68.0765 14.1359 67.8925 14.0176 67.7086M13.6627 67.1672C12.5058 65.3277 11.6907 63.2779 11.2306 61.031C11.086 60.3478 10.994 59.6645 10.9283 58.9813C10.9283 58.863 10.902 58.7448 10.8888 58.6134C10.8362 57.9564 10.7968 57.2863 10.7968 56.6293C10.7968 56.4979 10.7968 56.3534 10.7968 56.222C10.7968 55.5387 10.8362 54.8555 10.8888 54.1854C10.8888 54.1328 10.8888 54.0671 10.902 54.0146C10.9677 53.3576 11.0466 52.7006 11.1518 52.0436C11.1649 51.9254 11.1912 51.8071 11.2043 51.6889C11.3095 51.0188 11.441 50.3618 11.5987 49.7048C11.625 49.5603 11.6645 49.4157 11.7039 49.2712C11.8616 48.6142 12.0325 47.9572 12.2166 47.3134C12.2429 47.2214 12.2692 47.1295 12.2955 47.0375C12.4795 46.4331 12.6636 45.8287 12.8739 45.2242C12.9133 45.1191 12.9396 45.0271 12.9791 44.922C13.1894 44.2913 13.426 43.6869 13.6627 43.0694C13.7152 42.938 13.7678 42.7934 13.8204 42.662C14.057 42.0708 14.3068 41.4795 14.5566 40.9013C14.596 40.7962 14.6486 40.7043 14.6881 40.5991C14.9247 40.0473 15.1745 39.5217 15.4242 38.9961C15.4505 38.9304 15.49 38.8647 15.5163 38.799C15.7792 38.2472 16.0421 37.7216 16.305 37.2092C16.3576 37.0909 16.4234 36.9858 16.4759 36.8807C16.7389 36.3814 16.9886 35.8952 17.2516 35.4353C17.3041 35.3433 17.3567 35.2514 17.3962 35.1725C17.6459 34.7258 17.8957 34.279 18.1323 33.8717C18.1455 33.8454 18.1586 33.8192 18.1849 33.7929C18.4347 33.3593 18.6845 32.9651 18.908 32.5709C18.9474 32.4921 19 32.4264 19.0394 32.3475C19.2629 31.9928 19.4733 31.6511 19.6704 31.3489C19.7099 31.2832 19.7493 31.2175 19.7888 31.165C19.7888 31.165 19.7888 31.1518 19.8019 31.1387M19.9859 30.8624C20.1043 30.6653 20.2357 30.4945 20.3409 30.3236L20.0517 29.7324M19.7624 29.1448L16.3576 22.2334C16.3576 22.2334 16.3576 22.1809 16.3313 22.1677C16.2393 21.9706 16.1604 21.7604 16.121 21.5502C16.121 21.537 16.121 21.5239 16.121 21.5107C16.0947 21.3662 16.0684 21.2217 16.0684 21.064C16.0684 21.0114 16.0684 20.9589 16.0684 20.9063C16.0684 20.8538 16.0684 20.7881 16.0684 20.7355C16.0815 20.5516 16.121 20.3545 16.1735 20.1705C16.1735 20.1442 16.1735 20.118 16.1867 20.0917C16.2524 19.8946 16.3444 19.6975 16.4496 19.5004C16.4496 19.4741 16.4628 19.461 16.4759 19.4347C16.4891 19.4084 16.5153 19.3953 16.5285 19.369C16.6468 19.1982 16.7651 19.0405 16.9097 18.9091C16.9229 18.896 16.936 18.8828 16.9492 18.8566C17.1069 18.712 17.2778 18.5806 17.4619 18.4755C17.5013 18.4492 17.5539 18.423 17.6065 18.3967C17.7642 18.3178 17.9351 18.2522 18.106 18.1996C18.1455 18.1996 18.1849 18.1733 18.2243 18.1602C18.2375 18.1602 18.2506 18.1602 18.2769 18.147C32.3039 14.9147 47.3167 8.41067 47.3167 3.89069C47.3167 2.30081 48.6051 1 50.2089 1H61.7512C63.3419 1 64.6433 2.28767 64.6433 3.89069C64.6433 8.41067 79.6562 14.9147 93.6831 18.147C93.6963 18.147 93.7094 18.147 93.7357 18.1602C93.7752 18.1602 93.8146 18.1865 93.854 18.1996C94.0249 18.2522 94.1958 18.3178 94.3536 18.3967C94.4062 18.423 94.4588 18.4492 94.4982 18.4755C94.6823 18.5806 94.8532 18.712 95.0109 18.8566C95.0241 18.8697 95.0372 18.896 95.0635 18.9091C95.2081 19.0405 95.3264 19.1982 95.4316 19.369C95.4447 19.3953 95.471 19.4084 95.4842 19.4347C95.4973 19.461 95.4973 19.4741 95.5105 19.5004C95.6156 19.6844 95.7208 19.8814 95.7734 20.0917C95.7734 20.118 95.7734 20.1442 95.7865 20.1705C95.8391 20.3545 95.8654 20.5384 95.8917 20.7224C95.8917 20.7749 95.8917 20.8406 95.8917 20.8932C95.8917 20.9457 95.8917 20.9983 95.8917 21.0509C95.8917 21.2085 95.8654 21.3531 95.8391 21.4976C95.8391 21.5107 95.8391 21.5239 95.8391 21.537C95.7997 21.7473 95.7208 21.9575 95.6288 22.1546C95.6288 22.1809 95.6288 22.194 95.6025 22.2203L92.053 29.4339M91.9347 29.7324L91.6455 30.3236C91.7507 30.4945 91.869 30.6653 92.0005 30.8624M92.3554 31.4056C92.5394 31.6947 92.7498 32.0232 92.947 32.3516C92.9864 32.4173 93.039 32.4962 93.0784 32.575C93.3151 32.9561 93.5517 33.3634 93.8015 33.797C93.8146 33.8233 93.8277 33.8495 93.854 33.8758C94.0907 34.2831 94.3405 34.7168 94.5902 35.1635C94.6428 35.2555 94.6954 35.3474 94.748 35.4394C94.9978 35.8993 95.2607 36.3855 95.5236 36.8716C95.5762 36.9767 95.6419 37.095 95.6945 37.2001C95.9574 37.7126 96.2203 38.2513 96.4833 38.79C96.5096 38.8557 96.549 38.9214 96.5753 38.9871C96.8251 39.5127 97.0617 40.0382 97.3115 40.5901C97.3509 40.6952 97.4035 40.7872 97.4429 40.8923C97.6927 41.4704 97.9425 42.0486 98.1791 42.653C98.2317 42.7844 98.2843 42.9289 98.3369 43.0603C98.5735 43.6647 98.797 44.2823 99.0205 44.913C99.0599 45.005 99.0862 45.1101 99.1125 45.2021C99.3097 45.7933 99.5069 46.4109 99.6909 47.0153C99.7172 47.1073 99.7435 47.1993 99.7698 47.2912C99.9538 47.9351 100.125 48.5921 100.282 49.249C100.322 49.3936 100.348 49.5381 100.388 49.6826C100.532 50.3396 100.664 50.9966 100.782 51.6667C100.808 51.7849 100.821 51.9032 100.835 52.0215C100.94 52.6784 101.019 53.3354 101.084 53.9924C101.084 54.0449 101.098 54.1106 101.098 54.1632C101.15 54.8465 101.176 55.5297 101.19 56.1998C101.19 56.3312 101.19 56.4757 101.19 56.6071C101.19 57.2773 101.163 57.9342 101.098 58.5912C101.098 58.7095 101.071 58.8409 101.058 58.9591C100.979 59.6555 100.887 60.3388 100.756 61.0089C100.269 63.374 99.4017 65.5157 98.1397 67.4209M97.9688 67.7086C97.8505 67.8925 97.719 68.0633 97.5876 68.2473H98.2449M98.9022 68.2475H102.162C106.934 68.2475 110.826 72.1236 110.826 76.9064C110.826 80.5461 108.551 83.6733 105.357 84.9478C95.7865 104.302 92.9864 118.9 91.777 135.784C91.8296 135.968 91.869 136.166 91.8821 136.363C91.9742 137.519 93.0127 139.805 93.7226 141.053C93.8015 141.185 93.8672 141.329 93.9198 141.474C94.7349 143.642 94.4325 146.073 93.1179 147.965C91.8033 149.87 89.6342 151 87.3204 151H24.8632C22.5494 151 20.3803 149.87 19.0657 147.965C17.7511 146.06 17.4487 143.642 18.2638 141.474C18.3164 141.329 18.3821 141.198 18.4478 141.067C19.3812 139.398 20.2489 137.309 20.2883 136.612C19.1183 119.373 16.3839 104.618 6.64262 84.9478C3.44811 83.6733 1.17383 80.5592 1.17383 76.9064C1.17383 72.1368 5.05194 68.2475 9.83713 68.2475H13.426M18.2112 97.0877C18.2901 97.2979 18.369 97.495 18.4347 97.7052M18.6582 98.3246C22.9832 110.36 24.8106 121.082 25.7702 132.698M25.7965 133.026C25.8097 133.236 25.8359 133.46 25.8491 133.683H26.5064M27.1637 133.683H85.1513M85.48 133.683H86.1373C86.1504 133.46 86.1767 133.25 86.1899 133.026M86.2424 132.352C87.5176 117.189 90.2914 103.537 98.2186 86.4426M98.35 86.1408C98.4421 85.9437 98.5341 85.7466 98.6261 85.5495H97.9688M97.3115 85.5495H14.3462M14.0176 85.5495H13.3603C13.4523 85.7466 13.5443 85.9437 13.6363 86.1408M13.9387 86.7865C14.4908 88.0085 15.0298 89.2042 15.5294 90.3867M15.6609 90.7129C15.7529 90.91 15.8318 91.1203 15.9238 91.3174M59.4506 6.77932H58.7933M58.228 6.77932H53.4691M53.1931 6.77932H52.5358M89.1872 25.7546H88.5299M87.8857 25.7546H31.8569M31.5282 25.7546H30.8709M21.9053 67.6265C22.0762 67.7578 22.2602 67.8761 22.4443 68.0075M23.0227 68.2465H89.1872C89.1872 68.2465 89.2529 68.2071 89.2792 68.1808M89.5552 68.0075C89.7393 67.8761 89.9233 67.7578 90.0942 67.6265" stroke="#666666" stroke-width="2" stroke-miterlimit="10" stroke-linecap="round" stroke-dasharray="6 6"/>
</svg>