<svg width="14" height="8" viewBox="0 0 14 8" fill="none" xmlns="http://www.w3.org/2000/svg">
<path d="M1.63251 4.87867C1.57282 5.04161 1.45195 5.17486 1.29558 5.25011C1.13921 5.32535 0.959667 5.33666 0.795093 5.28163C0.630518 5.2266 0.493888 5.10956 0.414231 4.95539C0.334575 4.80122 0.318171 4.62207 0.368505 4.456C0.392215 4.38259 0.419809 4.30915 0.451172 4.23867C0.504505 4.112 0.583172 3.93733 0.691172 3.73067C0.911172 3.31733 1.25384 2.76667 1.75917 2.216C2.77917 1.10267 4.44984 0 7.00051 0C9.55117 0 11.2218 1.10267 12.2418 2.216C12.7863 2.8133 13.2278 3.49681 13.5485 4.23867L13.6098 4.38933C13.6138 4.4 13.6272 4.46933 13.6405 4.536L13.6672 4.66667C13.6672 4.66667 13.7792 5.11067 13.2112 5.29867C13.0439 5.35453 12.8613 5.34183 12.7034 5.26337C12.5454 5.1849 12.425 5.04705 12.3685 4.88V4.876L12.3605 4.85467C12.2935 4.68339 12.217 4.51601 12.1312 4.35333C11.8941 3.90602 11.6011 3.49069 11.2592 3.11733C10.4458 2.23067 9.11651 1.33333 7.00051 1.33333C4.88451 1.33333 3.55517 2.23067 2.74184 3.11733C2.30149 3.60009 1.9434 4.15188 1.68184 4.75067C1.66785 4.78508 1.65451 4.81975 1.64184 4.85467L1.63251 4.87867ZM4.33384 5.33333C4.33384 4.62609 4.61479 3.94781 5.11489 3.44772C5.61498 2.94762 6.29326 2.66667 7.00051 2.66667C7.70775 2.66667 8.38603 2.94762 8.88612 3.44772C9.38622 3.94781 9.66717 4.62609 9.66717 5.33333C9.66717 6.04058 9.38622 6.71885 8.88612 7.21895C8.38603 7.71905 7.70775 8 7.00051 8C6.29326 8 5.61498 7.71905 5.11489 7.21895C4.61479 6.71885 4.33384 6.04058 4.33384 5.33333Z" fill="#9E9E9E"/>
</svg>
