<svg width="21" height="24" viewBox="0 0 21 24" fill="none" xmlns="http://www.w3.org/2000/svg">
<path id="Vector" d="M19.4681 22.9716C19.4681 22.9716 19.2022 22.9147 19.1135 22.8294C19.0249 22.7441 18.9658 22.6304 18.9658 22.4882V2.72773L12.14 10.3476C11.6967 10.831 11.1353 11.0584 10.4852 11.0868C9.86469 11.0868 9.30327 10.831 8.83049 10.3476L1.97512 2.72773V22.5166C1.97512 22.5166 1.91603 22.7725 1.82738 22.8578C1.73873 22.9431 1.62053 23 1.47278 23C1.35459 23 1.23639 22.9431 1.14774 22.8578C1.0591 22.7725 1 22.6588 1 22.5166V1.44828C1 1.24925 1.1182 1.10709 1.32504 1.02179C1.53188 0.964926 1.73872 1.02179 1.88647 1.16395L9.59875 9.75052C9.8647 10.0348 10.1602 10.177 10.5148 10.177C10.8694 10.177 11.1944 10.0348 11.4308 9.75052L19.1135 1.16395C19.2613 1.02179 19.4386 0.964926 19.675 1.02179C19.8818 1.10709 20 1.24925 20 1.44828V22.5166C20 22.5166 19.9409 22.7725 19.8523 22.8578C19.7636 22.9431 19.6454 23 19.5272 23L19.4681 22.9716Z" fill="#F9BB00" stroke="#F9BB00" stroke-width="0.25" stroke-linecap="round" stroke-linejoin="round"/>
</svg>
