<svg width="55" height="104" viewBox="0 0 55 104" fill="none" xmlns="http://www.w3.org/2000/svg">
<g id="Vector">
<path d="M54.5291 54.9746C54.2222 54.6711 53.8227 54.5088 53.3945 54.5088H48.7208V40.31C48.7208 28.7152 39.2164 19.3223 27.5 19.3223C15.7765 19.3223 6.28633 28.7152 6.27919 40.31V54.5088H1.60547C1.18448 54.5088 0.770628 54.6782 0.470939 54.9746C0.171251 55.271 0 55.6803 0 56.0966V62.2151C0 76.6821 11.4738 88.538 25.8945 89.3636V100.824H14.9488C14.0568 100.824 13.3433 101.537 13.3433 102.412C13.3433 103.287 14.064 104 14.9488 104H40.0584C40.9432 104 41.6639 103.287 41.6639 102.412C41.6639 101.537 40.9432 100.824 40.0584 100.824H29.1055V89.3636C43.5262 88.538 54.9929 76.6821 55 62.2151V56.0966C55 55.6732 54.8359 55.271 54.5291 54.9746ZM9.49014 57.6845H45.5099V62.2151C45.4956 72.0527 37.4468 80.013 27.5 80.0271C17.5532 80.013 9.51155 72.0527 9.49014 62.2151V57.6845ZM27.5 22.4979C37.4468 22.5191 45.4956 30.4724 45.5099 40.31V54.5088H9.49014V40.31C9.51155 30.4724 17.5461 22.512 27.5 22.4979ZM51.7891 62.2151C51.7891 68.8417 49.0704 74.8402 44.6679 79.1944C40.2653 83.5486 34.2073 86.2374 27.5071 86.2374C20.807 86.2374 14.749 83.5416 10.3464 79.1944C5.94382 74.8402 3.22522 68.8417 3.22522 62.2151V57.6845H6.29346V62.2151C6.29346 73.8099 15.7907 83.2028 27.5143 83.2028C39.2378 83.2028 48.7351 73.8099 48.7351 62.2151V57.6845H51.8033V62.2151H51.7891Z" fill="#FF7752"/>
<path d="M30.7038 28.56C30.7038 30.1337 29.4123 31.411 27.8211 31.411C26.2299 31.411 24.9384 30.1337 24.9384 28.56C24.9384 26.9862 26.2299 25.7089 27.8211 25.7089C29.4123 25.7089 30.7038 26.9862 30.7038 28.56Z" fill="#FFAD33"/>
<path d="M30.7038 46.3226C30.7038 47.8963 29.4123 49.1736 27.8211 49.1736C26.2299 49.1736 24.9384 47.8963 24.9384 46.3226C24.9384 44.7489 26.2299 43.4715 27.8211 43.4715C29.4123 43.4715 30.7038 44.7489 30.7038 46.3226Z" fill="#FFAD33"/>
<path d="M17.8457 46.3226C17.8457 47.8963 16.5542 49.1736 14.963 49.1736C13.3718 49.1736 12.0803 47.8963 12.0803 46.3226C12.0803 44.7489 13.3718 43.4715 14.963 43.4715C16.5542 43.4715 17.8457 44.7489 17.8457 46.3226Z" fill="#FFAD33"/>
<path d="M42.9126 46.3226C42.9126 47.8963 41.621 49.1736 40.0298 49.1736C38.4386 49.1736 37.1471 47.8963 37.1471 46.3226C37.1471 44.7489 38.4386 43.4715 40.0298 43.4715C41.621 43.4715 42.9126 44.7489 42.9126 46.3226Z" fill="#FFAD33"/>
<path d="M23.1046 37.1061C23.1046 38.6798 21.813 39.9571 20.2218 39.9571C18.6306 39.9571 17.3391 38.6798 17.3391 37.1061C17.3391 35.5323 18.6306 34.255 20.2218 34.255C21.813 34.255 23.1046 35.5323 23.1046 37.1061Z" fill="#FFAD33"/>
<path d="M38.0319 37.1061C38.0319 38.6798 36.7404 39.9571 35.1492 39.9571C33.558 39.9571 32.2736 38.6798 32.2736 37.1061C32.2736 35.5323 33.5651 34.255 35.1492 34.255C36.7333 34.255 38.0319 35.5323 38.0319 37.1061Z" fill="#FFAD33"/>
<path d="M19.6367 14.8834C19.0088 14.2623 19.0088 13.2602 19.6367 12.6392C21.8059 10.4939 24.6601 9.41413 27.5 9.41413C30.3399 9.41413 33.1941 10.4939 35.3704 12.6392C35.9983 13.2602 35.9983 14.2623 35.3704 14.8834C34.7425 15.5044 33.7292 15.5044 33.1013 14.8834C31.5529 13.352 29.5336 12.5898 27.5071 12.5898C25.4807 12.5898 23.4613 13.352 21.9129 14.8834C21.599 15.1939 21.1851 15.3491 20.7784 15.3491C20.3646 15.3491 19.9578 15.1939 19.6439 14.8834H19.6367Z" fill="#FFAD33"/>
<path d="M12.9009 8.22854C12.273 7.60752 12.273 6.60541 12.9009 5.98439C16.9253 1.99715 22.2198 0 27.4929 0C32.7731 0 38.0676 1.99715 42.0991 5.97734C42.727 6.59836 42.727 7.60046 42.0991 8.22148C41.4712 8.84251 40.458 8.84251 39.83 8.22148C36.4193 4.84821 31.9668 3.17568 27.5 3.16862C23.0403 3.16862 18.5878 4.84821 15.1842 8.22148C14.8703 8.53199 14.4564 8.68725 14.0497 8.68725C13.6358 8.68725 13.2291 8.53199 12.9152 8.22148L12.9009 8.22854Z" fill="#FFAD33"/>
</g>
</svg>
