<svg width="26" height="26" viewBox="0 0 26 26" fill="none" xmlns="http://www.w3.org/2000/svg">
<path id="Vector" d="M5.87551 7.26996H24L21.6553 15.757H8.06518L4.26072 2H2M12.283 21.2918H17.2986M10.1289 18.4233L11.0267 15.757M12.1958 21.3859C12.1958 22.8289 11.1107 24 9.77363 24C8.43658 24 7.35144 22.8289 7.35144 21.3859C7.35144 19.943 8.43658 18.7719 9.77363 18.7719C11.1107 18.7719 12.1958 19.943 12.1958 21.3859ZM22.227 21.3859C22.227 22.8289 21.1418 24 19.8048 24C18.4677 24 17.3826 22.8289 17.3826 21.3859C17.3826 19.943 18.4677 18.7719 19.8048 18.7719C21.1418 18.7719 22.227 19.943 22.227 21.3859Z" stroke="#C5C5C5" stroke-width="3" stroke-linecap="round" stroke-linejoin="round"/>
</svg>
