<svg width="26" height="24" viewBox="0 0 26 24" fill="none" xmlns="http://www.w3.org/2000/svg">
<path id="Vector" d="M13 22C12.6009 22 12.2004 21.8959 11.8433 21.7014C10.7636 21.1103 8.65455 19.8423 6.66457 17.9954C4.07663 15.5911 2.54318 13.0123 2.10626 10.3277C1.76596 8.24196 2.2519 6.11332 3.43664 4.48698C4.53456 2.98009 6.09041 2.09954 7.81711 2.00766C7.91793 2.00153 8.02156 2 8.12239 2C9.73986 2 11.2677 2.68147 12.423 3.92037C12.6317 4.14395 12.8235 4.38132 13 4.63093C13.1751 4.38132 13.3683 4.14395 13.577 3.92037C14.7323 2.68147 16.2587 2 17.8776 2C17.9784 2 18.0821 2.00306 18.1829 2.00766C19.9096 2.09954 21.4654 2.98009 22.5634 4.48698C23.7481 6.11332 24.234 8.24196 23.8937 10.3277C23.4568 13.0123 21.922 15.5911 19.334 17.9954C17.3441 19.8423 15.2364 21.1103 14.1553 21.7014C13.7982 21.8974 13.3977 22 12.9986 22H13Z" stroke="#C5C5C5" stroke-width="3"/>
</svg>
