<svg width="128" height="100" viewBox="0 0 128 100" fill="none" xmlns="http://www.w3.org/2000/svg">
<g id="&#236;&#149;&#132;&#236;&#157;&#180;&#236;&#189;&#152;">
<path id="Vector" d="M63.9999 5.38379L28.6758 40.5793H33.0394L63.9999 9.73154L94.9604 40.5793H99.324L63.9999 5.38379Z" fill="#C5C5C5"/>
<path id="Vector_2" d="M63.9993 15.9427C68.0159 15.9427 71.272 12.6984 71.272 8.69645C71.272 4.69445 68.0159 1.4502 63.9993 1.4502C59.9827 1.4502 56.7266 4.69445 56.7266 8.69645C56.7266 12.6984 59.9827 15.9427 63.9993 15.9427Z" fill="white"/>
<path id="Vector_3" d="M64.0007 0C59.1871 0 55.2734 3.89945 55.2734 8.69551C55.2734 13.4916 59.1871 17.391 64.0007 17.391C68.8143 17.391 72.728 13.4916 72.728 8.69551C72.728 3.89945 68.8143 0 64.0007 0ZM69.8189 8.69551C69.8189 11.8916 67.2085 14.4925 64.0007 14.4925C60.793 14.4925 58.1825 11.8916 58.1825 8.69551C58.1825 5.49942 60.793 2.8985 64.0007 2.8985C67.2085 2.8985 69.8189 5.49942 69.8189 8.69551Z" fill="#C5C5C5"/>
<path id="Vector_4" d="M122.182 40.5815H5.81871C3.40874 40.5815 1.45508 42.5281 1.45508 44.9293V94.2038C1.45508 96.605 3.40874 98.5516 5.81871 98.5516H122.182C124.592 98.5516 126.546 96.605 126.546 94.2038V44.9293C126.546 42.5281 124.592 40.5815 122.182 40.5815Z" fill="white"/>
<path id="Vector_5" d="M122.182 39.1313H5.81818C2.61042 39.1313 0 41.7323 0 44.9284V94.2029C0 97.399 2.61042 99.9999 5.81818 99.9999H122.182C125.39 99.9999 128 97.399 128 94.2029V44.9284C128 41.7323 125.39 39.1313 122.182 39.1313ZM125.091 44.9284V94.2029C125.091 95.799 123.788 97.1014 122.182 97.1014H5.81818C4.21236 97.1014 2.90909 95.799 2.90909 94.2029V44.9284C2.90909 43.3322 4.21236 42.0298 5.81818 42.0298H122.182C123.788 42.0298 125.091 43.3322 125.091 44.9284Z" fill="#C5C5C5"/>
<path id="Vector_6" d="M114.908 47.8257H13.0902C10.6802 47.8257 8.72656 49.7722 8.72656 52.1734V86.9555C8.72656 89.3567 10.6802 91.3032 13.0902 91.3032H114.908C117.318 91.3032 119.272 89.3567 119.272 86.9555V52.1734C119.272 49.7722 117.318 47.8257 114.908 47.8257Z" fill="white"/>
<path id="Vector_7" d="M114.91 46.3755H13.0916C9.88386 46.3755 7.27344 48.9764 7.27344 52.1725V86.9545C7.27344 90.1506 9.88386 92.7515 13.0916 92.7515H114.91C118.118 92.7515 120.728 90.1506 120.728 86.9545V52.1725C120.728 48.9764 118.118 46.3755 114.91 46.3755ZM117.819 52.1725V86.9545C117.819 88.5506 116.516 89.853 114.91 89.853H13.0916C11.4858 89.853 10.1825 88.5506 10.1825 86.9545V52.1725C10.1825 50.5764 11.4858 49.274 13.0916 49.274H114.91C116.516 49.274 117.819 50.5764 117.819 52.1725Z" fill="#C5C5C5"/>
<g id="close">
<path id="Vector_8" d="M34.9364 71.8084C34.4089 71.8084 34.0249 71.963 33.7844 72.276C33.5439 72.5852 33.3461 72.9871 33.1832 73.4779C32.7992 74.5214 32.229 75.3137 31.4765 75.8547C30.724 76.3958 29.8009 76.6624 28.7109 76.6624C27.7063 76.6624 26.8258 76.4228 26.0772 75.9475C25.3286 75.4721 24.7468 74.7533 24.3395 73.7871C23.9323 72.8248 23.7267 71.6152 23.7267 70.162C23.7267 67.9901 24.1883 66.3128 25.1114 65.1302C26.0346 63.9515 27.2797 63.3602 28.8389 63.3602C29.8203 63.3602 30.6426 63.5882 31.3136 64.0481C31.9808 64.508 32.5665 65.1998 33.0591 66.1235C33.3577 66.6838 33.6254 67.078 33.8697 67.3099C34.1141 67.5379 34.4748 67.6539 34.9635 67.6539C35.398 67.6539 35.7703 67.4877 36.0768 67.1553C36.3832 66.823 36.5383 66.4404 36.5383 66.0075C36.5383 65.2191 36.2241 64.3805 35.5919 63.4916C34.9597 62.6066 34.052 61.8607 32.869 61.2578C31.686 60.655 30.3361 60.3535 28.8195 60.3535C27.5745 60.3535 26.4031 60.5738 25.3015 61.0144C24.2038 61.4549 23.2457 62.1003 22.4273 62.9428C21.6089 63.7892 20.9805 64.8056 20.5422 65.9921C20.1039 67.1824 19.8828 68.5273 19.8828 70.0306C19.8828 70.9582 19.972 71.8316 20.1466 72.6548C20.3211 73.4779 20.5849 74.2509 20.934 74.9774C21.2831 75.704 21.7058 76.361 22.1984 76.9445C22.7531 77.5899 23.3582 78.1078 24.0215 78.5059C24.6809 78.9001 25.4178 79.1899 26.2246 79.3793C27.0353 79.5648 27.9352 79.6614 28.9243 79.6614C30.2275 79.6614 31.3718 79.4527 32.3492 79.0353C33.3306 78.6179 34.1335 78.0769 34.7657 77.4122C35.398 76.7474 35.8595 76.0673 36.1543 75.3755C36.4491 74.6837 36.5965 74.0422 36.5965 73.447C36.5965 72.9794 36.4336 72.5891 36.1117 72.276C35.7897 71.963 35.398 71.8045 34.948 71.8045L34.9364 71.8084ZM51.4174 76.2412H43.7218V62.6491C43.7218 61.8762 43.5434 61.3004 43.1905 60.9216C42.8375 60.5467 42.3759 60.3574 41.8057 60.3574C41.2355 60.3574 40.7895 60.5506 40.4443 60.9293C40.0991 61.3119 39.9245 61.8839 39.9245 62.6491V77.0296C39.9245 77.845 40.1068 78.4363 40.4675 78.7996C40.8283 79.1667 41.4217 79.3484 42.2518 79.3484H51.4212C52.0419 79.3484 52.5151 79.2054 52.837 78.9194C53.1589 78.6373 53.3218 78.2624 53.3218 77.8064C53.3218 77.3503 53.1589 76.9832 52.8292 76.6856C52.4995 76.388 52.0302 76.2412 51.4174 76.2412ZM69.0658 61.5361C67.6734 60.7516 66.0016 60.3574 64.0583 60.3574C62.6271 60.3574 61.3471 60.5815 60.2222 61.026C59.0974 61.4704 58.1432 62.1158 57.3597 62.9583C56.5762 63.7969 55.9788 64.8172 55.5638 66.0153C55.1488 67.2133 54.9432 68.5273 54.9432 69.9649C54.9432 71.4026 55.141 72.6702 55.5366 73.876C55.9323 75.0818 56.518 76.1136 57.2937 76.9716C58.0695 77.8296 59.0353 78.4943 60.1951 78.9658C61.3548 79.4373 62.6658 79.673 64.132 79.673C65.5982 79.673 66.917 79.445 68.0574 78.9851C69.1977 78.5252 70.1635 77.8643 70.9471 76.9986C71.7306 76.133 72.3202 75.1088 72.7119 73.9301C73.1037 72.7514 73.3015 71.4374 73.3015 69.9959C73.3015 68.0442 72.9446 66.3438 72.2271 64.8945C71.5095 63.4453 70.4545 62.3322 69.062 61.5438L69.0658 61.5361ZM68.7323 73.6944C68.2513 74.703 67.6035 75.4528 66.789 75.9359C65.9745 76.4189 65.0823 76.6624 64.1088 76.6624C63.3485 76.6624 62.6542 76.5233 62.0181 76.2412C61.382 75.9591 60.8195 75.5378 60.3308 74.9736C59.8421 74.4093 59.462 73.6982 59.1943 72.8403C58.9267 71.9823 58.7909 71.0239 58.7909 69.9611C58.7909 68.8983 58.9267 67.9592 59.1943 67.1128C59.462 66.2703 59.8305 65.5747 60.292 65.0298C60.7575 64.4848 61.3121 64.0713 61.9521 63.7853C62.596 63.5032 63.2942 63.3602 64.0545 63.3602C65.1211 63.3602 66.0637 63.6192 66.886 64.1293C67.7083 64.6433 68.3405 65.4008 68.7827 66.4017C69.2249 67.4027 69.446 68.5891 69.446 69.9572C69.446 71.4335 69.2055 72.6779 68.7245 73.6905L68.7323 73.6944ZM88.8787 69.7447C88.2775 69.3196 87.5483 68.9601 86.6911 68.6626C85.8338 68.365 84.8758 68.0944 83.8208 67.8471C82.9752 67.6346 82.3701 67.4722 82.0055 67.364C81.6409 67.252 81.2801 67.1012 80.9194 66.9041C80.5626 66.707 80.2794 66.4752 80.0738 66.2046C79.8683 65.9341 79.7674 65.6095 79.7674 65.2385C79.7674 64.6356 80.0661 64.1216 80.6673 63.6887C81.2685 63.2597 82.0598 63.0472 83.0411 63.0472C84.0962 63.0472 84.8642 63.2443 85.3412 63.6385C85.8183 64.0327 86.2295 64.5853 86.5669 65.2887C86.8307 65.7795 87.0751 66.1351 87.3 66.3515C87.525 66.5679 87.8547 66.6761 88.2891 66.6761C88.7662 66.6761 89.1657 66.4983 89.4838 66.1351C89.8018 65.7756 89.9648 65.3699 89.9648 64.9177C89.9648 64.4269 89.8368 63.9206 89.5808 63.4027C89.3248 62.8849 88.9175 62.3902 88.3667 61.9187C87.812 61.4472 87.1177 61.0723 86.276 60.7864C85.4382 60.5004 84.4414 60.3574 83.2932 60.3574C81.8542 60.3574 80.6014 60.5738 79.5347 60.9989C78.468 61.4279 77.6535 62.0424 77.0911 62.8385C76.5286 63.6346 76.2455 64.5505 76.2455 65.5785C76.2455 66.6568 76.5131 67.5611 77.0445 68.2838C77.5759 69.0104 78.2974 69.5823 79.205 70.0036C80.1126 70.4248 81.2375 70.792 82.5873 71.105C83.5919 71.333 84.3987 71.5495 84.996 71.7543C85.5972 71.9591 86.086 72.2528 86.4661 72.6393C86.8462 73.0258 87.0324 73.5282 87.0324 74.1504C87.0324 74.931 86.6833 75.5842 85.9774 76.1059C85.2753 76.6276 84.3599 76.8904 83.2351 76.8904C82.4166 76.8904 81.7534 76.7629 81.253 76.5001C80.7488 76.2412 80.3609 75.9127 80.0855 75.5146C79.8101 75.1166 79.5502 74.618 79.3097 74.0229C79.1119 73.5204 78.8792 73.1456 78.5999 72.8905C78.3245 72.6354 77.9832 72.5079 77.5837 72.5079C77.0911 72.5079 76.6799 72.6702 76.3618 72.9987C76.0438 73.3272 75.8809 73.7175 75.8809 74.1774C75.8809 74.9658 76.1485 75.7813 76.6799 76.616C77.2113 77.4547 77.9056 78.1233 78.7589 78.6218C79.9614 79.3174 81.4857 79.6653 83.3359 79.6653C84.8797 79.6653 86.2101 79.4102 87.3349 78.9001C88.4598 78.3899 89.3131 77.6866 89.8988 76.7861C90.4845 75.8856 90.7754 74.8731 90.7754 73.7407C90.7754 72.7978 90.6048 72.0016 90.2712 71.3524C89.9337 70.6992 89.4644 70.1659 88.8632 69.7408L88.8787 69.7447ZM108.005 76.7552C107.702 76.4808 107.253 76.3417 106.655 76.3417H97.8077V71.0316H105.682C106.271 71.0316 106.706 70.8963 106.985 70.6297C107.268 70.363 107.408 70.0152 107.408 69.5939C107.408 69.1727 107.264 68.8287 106.977 68.5659C106.69 68.307 106.26 68.1795 105.678 68.1795H97.8038V63.5921H106.357C106.962 63.5921 107.412 63.4607 107.706 63.1902C108.001 62.9235 108.149 62.568 108.149 62.1274C108.149 61.6868 108.001 61.3429 107.706 61.0762C107.412 60.8095 106.965 60.6743 106.357 60.6743H96.3337C95.7985 60.6743 95.3563 60.7516 95.0111 60.91C94.6658 61.0685 94.4099 61.3158 94.2508 61.6598C94.0879 62.0037 94.0103 62.4482 94.0103 62.9931V77.0296C94.0103 77.845 94.1888 78.4363 94.5534 78.7996C94.9141 79.1667 95.5114 79.3484 96.3376 79.3484H106.651C107.249 79.3484 107.699 79.2092 108.001 78.9348C108.304 78.6605 108.455 78.301 108.455 77.8605C108.455 77.4199 108.304 77.0373 108.001 76.759L108.005 76.7552Z" fill="#C5C5C5"/>
</g>
</g>
</svg>
