<svg width="20" height="24" viewBox="0 0 20 24" fill="none" xmlns="http://www.w3.org/2000/svg">
<path id="Vector" d="M18.55 1.02839C18.55 1.02839 18.775 1.08516 18.8594 1.17032C18.9438 1.25548 19 1.36903 19 1.51097V13.9161C19 16.4142 18.1281 18.5716 16.3563 20.3316C14.5844 22.0916 12.475 23 9.99999 23C7.52499 23 5.3875 22.12 3.64375 20.3316C1.9 18.5432 1 16.4142 1 13.9161V1.48258C1 1.48258 1.05625 1.2271 1.14062 1.14194C1.225 1.05677 1.3375 1 1.45 1C1.59062 1 1.70312 1.05677 1.7875 1.14194C1.87187 1.2271 1.92812 1.34065 1.92812 1.48258V13.8877C1.92812 16.1303 2.71562 18.0323 4.29062 19.6503C5.86562 21.2684 7.77812 22.0348 9.99999 22.0348C12.2219 22.0348 14.1344 21.24 15.7094 19.6503C17.2844 18.0606 18.0719 16.1303 18.0719 13.8877V1.48258C18.0719 1.48258 18.1281 1.2271 18.2125 1.14194C18.2969 1.05677 18.4094 1 18.55 1V1.02839Z" fill="#F9BB00" stroke="#F9BB00" stroke-width="0.25" stroke-linecap="round" stroke-linejoin="round"/>
</svg>
