<svg width="102" height="102" viewBox="0 0 102 102" fill="none" xmlns="http://www.w3.org/2000/svg">
<g id="&#236;&#149;&#132;&#236;&#157;&#180;&#236;&#189;&#152;">
<path id="Vector" d="M6.2024 16H95.8012C98.12 16 100 17.5069 100 19.3591V96.6409C100 98.496 98.12 100 95.8012 100H6.19883C3.88002 100 2 98.4931 2 96.6409V19.3619C2 17.5069 3.88359 16 6.2024 16Z" fill="white" stroke="#666666" stroke-width="3"/>
<path id="Vector_2" d="M64.6233 42.8687C62.685 39.6806 61.5263 26.2338 63.461 23.0457C63.8047 22.474 63.8047 21.5516 63.461 20.9834C63.1138 20.4118 62.5539 20.4118 62.2102 20.9834C59.5845 25.3079 60.7467 40.6065 63.3724 44.9309C63.5461 45.215 63.7693 45.3588 63.9961 45.3588C64.2229 45.3588 64.4497 45.215 64.6233 44.9309C64.967 44.3628 64.967 43.4368 64.6233 42.8722V42.8687Z" fill="#666666"/>
<path id="Vector_3" d="M63.5134 1.31641H38.4824V8.19762H63.5134V1.31641Z" fill="white"/>
<path id="Vector_4" d="M37.1543 1.31522V8.19643C37.1543 8.92243 37.7496 9.51165 38.4831 9.51165H63.5141C64.2476 9.51165 64.8429 8.92243 64.8429 8.19643V1.31522C64.8429 0.589217 64.2476 0 63.5141 0H38.4831C37.7496 0 37.1543 0.589217 37.1543 1.31522ZM62.1853 1.31522V8.19643C62.1853 7.47043 62.7806 6.88122 63.5141 6.88122H38.4831C39.2166 6.88122 39.8119 7.47043 39.8119 8.19643V1.31522C39.8119 2.04122 39.2166 2.63043 38.4831 2.63043H63.5141C62.7806 2.63043 62.1853 2.04122 62.1853 1.31522Z" fill="#666666"/>
<path id="Vector_5" d="M31.5312 8.19372V27.466C31.5312 28.2271 32.1549 28.8409 32.9238 28.8409H37.0945C37.8634 28.8409 38.4835 28.2271 38.4835 27.466V1.3125L31.5312 8.19372Z" fill="white"/>
<path id="Vector_6" d="M30.2012 8.19488V27.4672C30.2012 28.9508 31.4201 30.1573 32.9225 30.1573H37.0932C38.5921 30.1573 39.811 28.9508 39.811 27.4672V1.31366C39.811 0.780561 39.485 0.303575 38.9925 0.100155C38.4964 -0.103265 37.9259 0.00896641 37.5432 0.384242L30.591 7.26546C30.3429 7.51097 30.2012 7.84766 30.2012 8.19488ZM37.1534 1.31366V27.4672C37.1534 27.5023 37.1251 27.5268 37.0932 27.5268H32.9225C32.8871 27.5268 32.8588 27.4988 32.8588 27.4672V8.19488C32.8588 8.5456 32.717 8.87879 32.469 9.1243L39.4213 2.24308C39.0421 2.62187 38.4716 2.73059 37.972 2.52717C37.4759 2.32375 37.1534 1.84326 37.1534 1.31366Z" fill="#666666"/>
<path id="Vector_7" d="M63.5176 1.3125V27.466C63.5176 28.2271 64.1377 28.8409 64.9066 28.8409H69.0773C69.8462 28.8409 70.4699 28.2271 70.4699 27.466V8.19372L63.5176 1.3125Z" fill="white"/>
<path id="Vector_8" d="M62.1875 1.31366V27.4672C62.1875 28.9508 63.4065 30.1573 64.9053 30.1573H69.076C70.5749 30.1573 71.7974 28.9508 71.7974 27.4672V8.19488C71.7974 7.84766 71.6592 7.51097 71.4076 7.26546L64.4553 0.384242C64.0762 0.00896641 63.5057 -0.103265 63.006 0.100155C62.51 0.303575 62.1875 0.784068 62.1875 1.31366ZM69.1398 8.19488V27.4672C69.1398 27.5023 69.1114 27.5268 69.076 27.5268H64.9053C64.8734 27.5268 64.8451 27.4988 64.8451 27.4672V1.31366C64.8451 1.84676 64.5191 2.32726 64.0266 2.52717C63.5305 2.73059 62.96 2.61836 62.5773 2.24308L69.5296 9.1243C69.2815 8.87879 69.1398 8.5421 69.1398 8.19488Z" fill="#666666"/>
<path id="Vector_9" d="M43.5 61.5C43.5 47.6956 54.6956 36.5 68.5 36.5C82.3101 36.5 93.5 47.6954 93.5 61.5C93.5 75.3046 82.3101 86.5 68.5 86.5C54.6899 86.5 43.5 75.3046 43.5 61.5Z" fill="white" stroke="#666666" stroke-width="3"/>
<path id="Vector_10" d="M69.5 76C69.0465 76 68.5913 75.8855 68.1855 75.6715C66.9586 75.0213 64.562 73.6265 62.3007 71.5949C59.3598 68.9502 57.6173 66.1135 57.1207 63.1605C56.734 60.8662 57.2862 58.5247 58.6325 56.7357C59.8802 55.0781 61.6482 54.1095 63.6103 54.0084C63.7249 54.0017 63.8427 54 63.9573 54C65.7953 54 67.5315 54.7496 68.8444 56.1124C69.0815 56.3583 69.2995 56.6194 69.5 56.894C69.6989 56.6194 69.9185 56.3583 70.1556 56.1124C71.4685 54.7496 73.2031 54 75.0427 54C75.1573 54 75.2751 54.0034 75.3897 54.0084C77.3518 54.1095 79.1198 55.0781 80.3675 56.7357C81.7137 58.5247 82.266 60.8662 81.8793 63.1605C81.3827 66.1135 79.6386 68.9502 76.6978 71.5949C74.4364 73.6265 72.0414 75.0213 70.8129 75.6715C70.4071 75.8871 69.9519 76 69.4984 76H69.5Z" stroke="#666666" stroke-width="3"/>
<path id="Vector_11" d="M69.0765 42.6094C67.5422 42.6094 66.2949 43.8404 66.2949 45.3591C66.2949 46.8777 67.5422 48.1122 69.0765 48.1122C70.6109 48.1122 71.8582 46.8777 71.8582 45.3591C71.8582 43.8404 70.6144 42.6094 69.0765 42.6094Z" fill="white"/>
<path id="Vector_12" d="M69.0772 41.293C67.9787 41.293 66.9476 41.7173 66.1716 42.4819C65.3956 43.25 64.9668 44.2706 64.9668 45.3579C64.9668 46.4451 65.3956 47.4657 66.1716 48.2338C66.9476 49.0019 67.9787 49.4263 69.0772 49.4263C70.1757 49.4263 71.2068 49.0019 71.9828 48.2338C72.7589 47.4657 73.1876 46.4451 73.1876 45.3579C73.1876 43.1167 71.345 41.293 69.0772 41.293ZM70.53 45.3579C70.53 45.7437 70.3812 46.1014 70.1048 46.375C69.832 46.6485 69.467 46.7958 69.0772 46.7958C68.6874 46.7958 68.326 46.6485 68.0496 46.375C67.7732 46.1014 67.6244 45.7437 67.6244 45.3579C67.6244 44.9721 67.7732 44.6143 68.0496 44.3443C68.3225 44.0707 68.6874 43.9234 69.0772 43.9234C69.878 43.9234 70.53 44.5687 70.53 45.3579Z" fill="#666666"/>
<path id="Vector_13" d="M71.7635 20.9795C71.4127 20.4079 70.8493 20.4079 70.5021 20.9795C70.1548 21.5477 70.1548 22.4736 70.5021 23.0418C72.4545 26.2299 71.2816 39.6767 69.3327 42.8648C68.9855 43.4329 68.9855 44.3553 69.3327 44.9235C69.5063 45.2076 69.7331 45.3514 69.9634 45.3514C70.1938 45.3514 70.4206 45.2076 70.5977 44.9235C73.2447 40.5991 74.414 25.304 71.7671 20.976L71.7635 20.9795Z" fill="#666666"/>
</g>
</svg>
