<svg width="19" height="24" viewBox="0 0 19 24" fill="none" xmlns="http://www.w3.org/2000/svg">
<path id="Vector" d="M17.1973 1.20979C17.1973 1.20979 17.3634 1.03911 17.5018 1.03911C17.6402 1.03911 17.7232 1.03911 17.8339 1.12445C17.9446 1.20979 18 1.32358 18 1.43737C18 1.55116 18 1.66494 17.917 1.77873L1.80716 22.8293C1.80716 22.8293 1.58572 23 1.44732 23C1.3366 23 1.25356 22.9716 1.17052 22.8862C1.0598 22.8009 1.00444 22.6871 1.00444 22.5733C1.00444 22.4595 1.00444 22.3457 1.08748 22.2319L8.92093 11.9911L1.08748 1.75028C1.08748 1.75028 0.976763 1.52271 1.00444 1.40892C1.03212 1.29514 1.08748 1.18135 1.17052 1.09601C1.28124 1.01067 1.39195 0.982221 1.50267 1.01067C1.61339 1.03911 1.72412 1.09601 1.80716 1.18135L9.50222 11.2231L17.1973 1.18135V1.20979Z" fill="#F9BB00" stroke="#F9BB00" stroke-width="0.25" stroke-linecap="round" stroke-linejoin="round"/>
</svg>
