<svg width="139" height="28" viewBox="0 0 139 28" fill="none" xmlns="http://www.w3.org/2000/svg">
<g id="logo">
<g id="&#227;&#133;&#163;logo">
<path id="Vector" opacity="0.4" d="M61.6932 13.2656C61.6932 20.912 55.502 27.1079 47.8613 27.1079C40.2206 27.1079 34.0293 20.912 34.0293 13.2656H61.7139H61.6932Z" fill="#6349FF"/>
<path id="Vector_2" opacity="0.4" d="M138.979 13.2656C138.979 20.912 132.658 27.1079 124.858 27.1079C117.059 27.1079 110.738 20.912 110.738 13.2656H139H138.979Z" fill="#32A753"/>
<path id="Vector_3" opacity="0.4" d="M0 0V13.027C0 20.8052 6.32497 27.1079 14.1307 27.1079C21.9364 27.1079 28.2614 20.8052 28.2614 13.027V0H0Z" fill="#32A9FF"/>
<path id="Vector_4" opacity="0.4" d="M92.8383 27.1079V14.0809C92.8383 6.30269 87.5391 0 81.0251 0C74.5111 0 69.2119 6.30269 69.2119 14.0809V27.1079H92.8592H92.8383Z" fill="#FFAD33"/>
<path id="Vector_5" opacity="0.4" d="M104.95 27.1079V14.0809C104.95 6.30269 99.6504 0 93.1364 0C86.6224 0 81.3232 6.30269 81.3232 14.0809V27.1079H104.971H104.95Z" fill="#FF3700"/>
</g>
</g>
</svg>
