<svg width="139" height="28" viewBox="0 0 139 28" fill="none" xmlns="http://www.w3.org/2000/svg">
<path opacity="0.4" d="M61.693 13.2656C61.693 20.9121 55.5017 27.1079 47.861 27.1079C40.2203 27.1079 34.0291 20.9121 34.0291 13.2656H61.7137H61.693Z" fill="#6349FF"/>
<path opacity="0.4" d="M138.979 13.2656C138.979 20.9121 132.658 27.1079 124.858 27.1079C117.059 27.1079 110.738 20.9121 110.738 13.2656H139H138.979Z" fill="#32A753"/>
<path opacity="0.4" d="M0 0V13.027C0 20.8052 6.32497 27.1079 14.1307 27.1079C21.9364 27.1079 28.2614 20.8052 28.2614 13.027V0H0Z" fill="#32A9FF"/>
<path opacity="0.4" d="M92.8378 27.1079V14.0809C92.8378 6.30269 87.5386 0 81.0246 0C74.5106 0 69.2114 6.30269 69.2114 14.0809V27.1079H92.8587H92.8378Z" fill="#FFAD33"/>
<path opacity="0.4" d="M104.95 27.1079V14.0809C104.95 6.30269 99.6509 0 93.1369 0C86.6229 0 81.3237 6.30269 81.3237 14.0809V27.1079H104.971H104.95Z" fill="#FF3700"/>
</svg>
